# xmcd CD database file
#
# Track frame offsets:
#	150
#	17941
#	32076
#	49533
#	69953
#	83597
#	99937
#	117912
#	132857
#	148450
#	169321
#	186353
#	202805
#	218622
#
# Disc length: 3187 seconds
#
# Revision: 5
# Processed by: cddbd v1.5.2PL0 Copyright (c) Steve Scherf et al.
# Submitted via: CDex 1.70beta3
#
DISCID=bf0c710e
DTITLE=Hoobastank - Is This The Day?
DYEAR=2010
DGENRE=Hard Rock
TTITLE0=Just One
TTITLE1=Crawling In The Dark
TTITLE2=I Don't Think I Love You
TTITLE3=Is This The Day
TTITLE4=Inside Of You
TTITLE5=Running Away
TTITLE6=The Reason
TTITLE7=My Turn
TTITLE8=What I Meant To Say
TTITLE9=If I Were You
TTITLE10=Tears Of Yesterday
TTITLE11=Pieces
TTITLE12=Same Direction
TTITLE13=Is This The Day
EXTD=YEAR: 2010
EXTT0=
EXTT1=
EXTT2=
EXTT3=
EXTT4=
EXTT5=
EXTT6=
EXTT7=
EXTT8=
EXTT9=
EXTT10=
EXTT11=
EXTT12=
EXTT13=
PLAYORDER=
